<svg width="121" height="120" viewBox="0 0 121 120" fill="none" xmlns="http://www.w3.org/2000/svg">
<path d="M120.28 60C120.28 93.1371 93.3542 120 60.1399 120C26.9255 120 0 93.1371 0 60C0 26.8629 26.9255 0 60.1399 0C93.3542 0 120.28 26.8629 120.28 60Z" fill="black"/>
<path d="M26.92 76.0851C25.4267 76.0851 24.08 75.8318 22.88 75.3251C21.7067 74.7918 20.7733 74.0051 20.08 72.9651C19.4133 71.8984 19.08 70.5784 19.08 69.0051C19.08 67.4318 19.6133 65.6851 20.68 63.7651C21.7467 61.8184 23.5333 59.8718 26.04 57.9251L25.64 61.6051L22.04 58.8051L25.8 54.2051C27.8267 55.7518 29.56 57.2584 31 58.7251C32.4667 60.1651 33.5867 61.6451 34.36 63.1651C35.1333 64.6851 35.52 66.2984 35.52 68.0051C35.52 68.8318 35.3867 69.7251 35.12 70.6851C34.8533 71.6184 34.4 72.4984 33.76 73.3251C33.12 74.1251 32.24 74.7918 31.12 75.3251C30.0267 75.8318 28.6267 76.0851 26.92 76.0851ZM27.36 70.5651C28.0267 70.5651 28.56 70.4318 28.96 70.1651C29.3867 69.8984 29.7067 69.5518 29.92 69.1251C30.1333 68.6984 30.24 68.2451 30.24 67.7651C30.24 67.2851 30.1333 66.7651 29.92 66.2051C29.7067 65.6451 29.2933 65.0184 28.68 64.3251C28.0667 63.6318 27.16 62.8318 25.96 61.9251L29 61.5251C27.9067 62.2718 27.0267 63.0318 26.36 63.8051C25.6933 64.5784 25.2133 65.3251 24.92 66.0451C24.6533 66.7384 24.52 67.3784 24.52 67.9651C24.52 68.8184 24.8 69.4718 25.36 69.9251C25.92 70.3518 26.5867 70.5651 27.36 70.5651ZM30.64 51.2051C29.8667 51.2051 29.2 50.9384 28.64 50.4051C28.1067 49.8451 27.84 49.1918 27.84 48.4451C27.84 47.6718 28.1067 47.0051 28.64 46.4451C29.2 45.8851 29.8667 45.6051 30.64 45.6051C31.3867 45.6051 32.0267 45.8851 32.56 46.4451C33.0933 47.0051 33.36 47.6718 33.36 48.4451C33.36 49.1918 33.0933 49.8451 32.56 50.4051C32.0267 50.9384 31.3867 51.2051 30.64 51.2051ZM23.72 51.1651C22.9467 51.1651 22.28 50.8984 21.72 50.3651C21.1867 49.8051 20.92 49.1518 20.92 48.4051C20.92 47.6318 21.1867 46.9651 21.72 46.4051C22.28 45.8451 22.9467 45.5651 23.72 45.5651C24.4667 45.5651 25.1067 45.8451 25.64 46.4051C26.1733 46.9651 26.44 47.6318 26.44 48.4051C26.44 49.1518 26.1733 49.8051 25.64 50.3651C25.1067 50.8984 24.4667 51.1651 23.72 51.1651ZM49.5081 76.1651C47.0281 76.1651 45.1081 75.9118 43.7481 75.4051C42.4148 74.8984 41.4815 74.1118 40.9481 73.0451C40.4148 71.9518 40.1081 70.5784 40.0281 68.9251L39.1881 46.6851H44.7881L45.6281 66.2451C45.6815 67.4718 45.8148 68.3918 46.0281 69.0051C46.2415 69.6184 46.6415 70.0318 47.2281 70.2451C47.8415 70.4584 48.7348 70.5651 49.9081 70.5651C50.9215 70.5651 51.6415 70.8318 52.0681 71.3651C52.5215 71.8718 52.7481 72.5118 52.7481 73.2851C52.7481 74.1118 52.4681 74.8051 51.9081 75.3651C51.3481 75.8984 50.5481 76.1651 49.5081 76.1651ZM54.7953 37.3651V34.5651L64.2353 31.7651V34.6451L54.7953 37.3651ZM49.5625 76.1651L49.9625 70.6051C52.1758 70.6051 53.9492 70.5918 55.2825 70.5651C56.6425 70.5384 57.6958 70.4851 58.4425 70.4051C59.2158 70.2984 59.7892 70.1784 60.1625 70.0451C60.5358 69.8851 60.8558 69.7118 61.1225 69.5251C61.4425 69.2851 61.7092 68.9651 61.9225 68.5651C62.1625 68.1384 62.3492 67.5784 62.4825 66.8851C62.6158 66.1918 62.6825 65.3251 62.6825 64.2851C62.6825 62.9784 62.5625 61.8851 62.3225 61.0051C62.1092 60.0984 61.7892 59.4184 61.3625 58.9651C60.9625 58.5118 60.4692 58.2851 59.8825 58.2851C59.4558 58.2851 59.0558 58.4318 58.6825 58.7251C58.3092 58.9918 58.0025 59.3651 57.7625 59.8451C57.5225 60.3251 57.4025 60.8718 57.4025 61.4851C57.4025 61.8318 57.4958 62.1384 57.6825 62.4051C57.8692 62.6718 58.1625 62.8718 58.5625 63.0051C58.9625 63.1384 59.4692 63.2051 60.0825 63.2051C60.6692 63.2051 61.2825 63.1384 61.9225 63.0051C62.5892 62.8451 63.2025 62.6318 63.7625 62.3651L63.9225 67.1251C63.4958 67.4184 63.0025 67.6851 62.4425 67.9251C61.8825 68.1651 61.2825 68.3518 60.6425 68.4851C60.0292 68.5918 59.4025 68.6451 58.7625 68.6451C57.3492 68.6451 56.1225 68.4584 55.0825 68.0851C54.0692 67.6851 53.2825 67.0451 52.7225 66.1651C52.1625 65.2851 51.8825 64.0851 51.8825 62.5651C51.8825 61.3918 52.0825 60.2318 52.4825 59.0851C52.8825 57.9118 53.4558 56.8584 54.2025 55.9251C54.9492 54.9651 55.8292 54.2051 56.8425 53.6451C57.8558 53.0584 58.9758 52.7651 60.2025 52.7651C62.0158 52.7651 63.5092 53.2984 64.6825 54.3651C65.8825 55.4051 66.7625 56.8184 67.3225 58.6051C67.9092 60.3651 68.2025 62.3251 68.2025 64.4851C68.2025 66.3784 67.9225 68.0318 67.3625 69.4451C66.8025 70.8318 66.1358 71.9251 65.3625 72.7251C64.7225 73.3918 63.9892 73.9518 63.1625 74.4051C62.3358 74.8584 61.3225 75.2184 60.1225 75.4851C58.9492 75.7251 57.4958 75.8984 55.7625 76.0051C54.0558 76.1118 51.9892 76.1651 49.5625 76.1651ZM63.6025 49.1251C62.8292 49.1251 62.1625 48.8584 61.6025 48.3251C61.0692 47.7651 60.8025 47.1118 60.8025 46.3651C60.8025 45.5918 61.0692 44.9251 61.6025 44.3651C62.1625 43.8051 62.8292 43.5251 63.6025 43.5251C64.3492 43.5251 64.9892 43.8051 65.5225 44.3651C66.0558 44.9251 66.3225 45.5918 66.3225 46.3651C66.3225 47.1118 66.0558 47.7651 65.5225 48.3251C64.9892 48.8584 64.3492 49.1251 63.6025 49.1251ZM56.6825 49.0851C55.9092 49.0851 55.2425 48.8184 54.6825 48.2851C54.1492 47.7251 53.8825 47.0718 53.8825 46.3251C53.8825 45.5518 54.1492 44.8851 54.6825 44.3251C55.2425 43.7651 55.9092 43.4851 56.6825 43.4851C57.4292 43.4851 58.0692 43.7651 58.6025 44.3251C59.1358 44.8851 59.4025 45.5518 59.4025 46.3251C59.4025 47.0718 59.1358 47.7251 58.6025 48.2851C58.0692 48.8184 57.4292 49.0851 56.6825 49.0851ZM76.91 53.2451C75.63 53.2451 74.6567 52.8584 73.99 52.0851C73.3233 51.2851 72.99 50.3518 72.99 49.2851C72.99 48.4318 73.1633 47.6584 73.51 46.9651C73.8833 46.2451 74.3767 45.6718 74.99 45.2451C75.6033 44.8184 76.31 44.6051 77.11 44.6051C77.8567 44.6051 78.51 44.8184 79.07 45.2451C79.6567 45.6718 80.11 46.2318 80.43 46.9251C80.7767 47.5918 80.95 48.3118 80.95 49.0851C80.95 50.2318 80.5767 51.2184 79.83 52.0451C79.0833 52.8451 78.11 53.2451 76.91 53.2451ZM76.87 50.6851C77.3233 50.6851 77.71 50.5384 78.03 50.2451C78.3767 49.9518 78.55 49.5651 78.55 49.0851C78.55 48.5784 78.3767 48.1651 78.03 47.8451C77.6833 47.4984 77.31 47.3251 76.91 47.3251C76.4033 47.3251 76.0033 47.4984 75.71 47.8451C75.4433 48.1918 75.31 48.5918 75.31 49.0451C75.31 49.5251 75.4567 49.9251 75.75 50.2451C76.0433 50.5384 76.4167 50.6851 76.87 50.6851ZM69.1869 85.2051L67.1469 80.2451C68.5602 79.7651 69.8535 79.2051 71.0269 78.5651C72.2269 77.9251 73.2669 77.2184 74.1469 76.4451C75.0269 75.6718 75.7069 74.8318 76.1869 73.9251C76.6669 72.9918 76.9069 71.9918 76.9069 70.9251C76.9069 69.8051 76.6535 68.5784 76.1469 67.2451C75.6402 65.9118 75.0269 64.5518 74.3069 63.1651L79.5469 60.6451C80.0269 61.4718 80.4402 62.3651 80.7869 63.3251C81.1602 64.2584 81.4669 65.0984 81.7069 65.8451C81.9469 66.5918 82.1069 67.0984 82.1869 67.3651C82.5602 68.6451 83.0669 69.4984 83.7069 69.9251C84.3735 70.3518 85.4402 70.5651 86.9069 70.5651C87.9202 70.5651 88.6402 70.8318 89.0669 71.3651C89.5202 71.8718 89.7469 72.5118 89.7469 73.2851C89.7469 74.1118 89.4669 74.8051 88.9069 75.3651C88.3469 75.8984 87.5469 76.1651 86.5069 76.1651C85.4135 76.1651 84.4535 76.0051 83.6269 75.6851C82.8002 75.3651 82.1335 74.8984 81.6269 74.2851C81.1469 73.6718 80.8402 72.9518 80.7069 72.1251L82.1869 72.9651C82.0269 74.3784 81.5602 75.7118 80.7869 76.9651C80.0402 78.2451 79.0669 79.4184 77.8669 80.4851C76.6669 81.5518 75.3202 82.4851 73.8269 83.2851C72.3335 84.0851 70.7869 84.7251 69.1869 85.2051ZM94.9516 83.2851V80.4851L104.392 77.6851V80.5651L94.9516 83.2851ZM86.5547 76.1651L86.9547 70.5651C87.568 70.5651 88.088 70.4184 88.5147 70.1251C88.968 69.8051 89.4347 69.2851 89.9147 68.5651C90.3947 67.8184 90.9547 66.8184 91.5947 65.5651C92.3947 63.9651 93.2214 62.7118 94.0747 61.8051C94.9547 60.8984 95.848 60.2584 96.7547 59.8851C97.688 59.4851 98.6214 59.2851 99.5547 59.2851C100.728 59.2851 101.821 59.5384 102.835 60.0451C103.848 60.5518 104.728 61.2451 105.475 62.1251C106.221 62.9784 106.795 63.9651 107.195 65.0851C107.621 66.1784 107.835 67.3118 107.835 68.4851C107.835 69.8984 107.528 71.1784 106.915 72.3251C106.328 73.4451 105.501 74.3384 104.435 75.0051C103.395 75.6451 102.195 75.9651 100.835 75.9651C99.688 75.9651 98.3547 75.7651 96.8347 75.3651C95.3147 74.9651 93.7147 74.1251 92.0347 72.8451L94.0747 68.0051C95.2747 68.8318 96.3947 69.4318 97.4347 69.8051C98.5014 70.1784 99.3814 70.3651 100.075 70.3651C100.608 70.3651 101.048 70.3118 101.395 70.2051C101.741 70.0984 101.995 69.9251 102.155 69.6851C102.315 69.4451 102.395 69.1251 102.395 68.7251C102.395 68.1651 102.261 67.5918 101.995 67.0051C101.728 66.4184 101.368 65.9251 100.915 65.5251C100.488 65.0984 99.9814 64.8851 99.3947 64.8851C98.8347 64.8851 98.3547 65.0984 97.9547 65.5251C97.5814 65.9251 97.208 66.5118 96.8347 67.2851C96.488 68.0318 96.0614 68.9118 95.5547 69.9251C94.9414 71.1518 94.3414 72.1784 93.7547 73.0051C93.168 73.8051 92.5414 74.4451 91.8747 74.9251C91.2347 75.3784 90.4747 75.6984 89.5947 75.8851C88.7414 76.0718 87.728 76.1651 86.5547 76.1651Z" fill="white"/>
</svg>
