<svg width="40" height="40" viewBox="0 0 40 40" fill="none" xmlns="http://www.w3.org/2000/svg">
<rect width="40" height="40" rx="16" fill="#18181C"/>
<path d="M29.2888 13.8207C28.6945 14.0767 28.0698 14.255 27.43 14.3511C27.7291 14.2997 28.1693 13.7609 28.3444 13.5428C28.6106 13.2138 28.8134 12.8382 28.9427 12.4351C28.9427 12.4051 28.9726 12.3624 28.9427 12.341C28.9276 12.3328 28.9107 12.3284 28.8935 12.3284C28.8764 12.3284 28.8595 12.3328 28.8444 12.341C28.1497 12.7175 27.4103 13.0049 26.6438 13.1963C26.6171 13.2045 26.5887 13.2052 26.5616 13.1985C26.5345 13.1917 26.5097 13.1776 26.49 13.1578C26.4303 13.0867 26.3661 13.0196 26.2977 12.9568C25.9851 12.6765 25.6304 12.447 25.2466 12.2768C24.7285 12.0641 24.1689 11.972 23.61 12.0074C23.0677 12.0417 22.5383 12.1873 22.0547 12.4351C21.5784 12.6964 21.1598 13.0513 20.824 13.4786C20.4709 13.9184 20.2159 14.4288 20.0763 14.9755C19.9611 15.4955 19.9481 16.0329 20.0378 16.5579C20.0378 16.6477 20.0378 16.6605 19.9609 16.6477C16.9143 16.1986 14.4146 15.1166 12.3721 12.7943C12.2824 12.6917 12.2354 12.6917 12.1627 12.7943C11.274 14.1458 11.7055 16.2842 12.8165 17.3405C12.9661 17.4817 13.1199 17.6185 13.2823 17.7468C12.7729 17.7106 12.276 17.5725 11.8209 17.3405C11.7355 17.2849 11.6884 17.3149 11.6842 17.4175C11.6721 17.5598 11.6721 17.7029 11.6842 17.8452C11.7733 18.5271 12.0419 19.1732 12.4623 19.7172C12.8827 20.2612 13.44 20.6838 14.077 20.9415C14.2323 21.0081 14.3942 21.0583 14.5599 21.0912C14.0883 21.1842 13.6047 21.1986 13.1284 21.134C13.0259 21.1126 12.9874 21.1682 13.0259 21.2666C13.654 22.9773 15.0171 23.4991 16.017 23.7899C16.1537 23.8113 16.2904 23.8113 16.4443 23.8455C16.4443 23.8455 16.4443 23.8455 16.4186 23.8711C16.1238 24.41 14.9316 24.7735 14.3847 24.9617C13.3864 25.3206 12.322 25.4578 11.2654 25.3637C11.0988 25.3381 11.0603 25.3423 11.0176 25.3637C10.9749 25.3851 11.0176 25.4321 11.0646 25.4749C11.2782 25.616 11.4919 25.7401 11.7141 25.8598C12.3756 26.2209 13.0749 26.5078 13.7993 26.7152C17.551 27.7501 21.7726 26.9889 24.5885 24.1876C26.8019 21.9894 27.5796 18.9571 27.5796 15.9206C27.5796 15.8052 27.7206 15.7367 27.8018 15.6769C28.3618 15.2402 28.8554 14.7244 29.2674 14.1458C29.3388 14.0595 29.3753 13.9497 29.37 13.8379C29.37 13.7737 29.37 13.7865 29.2888 13.8207Z" fill="white"/>
</svg>
